<!-- icon666.com - MILLIONS vector ICONS FREE --><svg id="Layer_1" enable-background="new 0 0 512 512" viewBox="0 0 512 512" xmlns="http://www.w3.org/2000/svg"><path d="m452 0h-392c-33.084 0-60 26.916-60 60v392c0 33.084 26.916 60 60 60h205.762c-13.828-11.414-25.872-24.911-35.663-40h-170.099c-11.028 0-20-8.972-20-20v-312h145v60h141v-60h146v90.099c15.088 9.791 28.586 21.836 40 35.663v-205.762c0-33.084-26.916-60-60-60zm-412 100v-40c0-11.028 8.972-20 20-20h125v60zm185 60v-120h61v120zm101-60v-60h126c11.028 0 20 8.972 20 20v40zm51 142c-74.439 0-135 60.561-135 135s60.561 135 135 135 135-60.561 135-135-60.561-135-135-135zm0 230c-52.383 0-95-42.617-95-95s42.617-95 95-95 95 42.617 95 95-42.617 95-95 95zm20-115h40v40h-40v40h-40v-40h-40v-40h40v-40h40z"></path></svg>