<!-- icon666.com - MILLIONS vector ICONS FREE --><svg id="Layer_1" viewBox="0 0 512 512" xmlns="http://www.w3.org/2000/svg" data-name="Layer 1"><path d="m479.6 454.23a27.77 27.77 0 1 1 -27.77-27.77 27.806 27.806 0 0 1 27.77 27.77zm-248.6 0a27.77 27.77 0 1 1 -27.85-27.758h.148a27.8 27.8 0 0 1 27.702 27.758zm-50.2-311.789c1.13 76.419 63.639 138.241 140.319 138.241 67.88 0 124.65-48.44 137.581-112.561l20.9 1.93v104.981a45.456 45.456 0 0 1 -45.4 45.4h-228.65a45.455 45.455 0 0 1 -45.4-45.4v-134.502l20.651 1.911zm2.369 207.99h251.031a75.485 75.485 0 0 0 75.4-75.4v-109.911a24.481 24.481 0 0 0 -22.329-24.489l-25.83-2.381c-1.128-76.43-63.641-138.25-140.32-138.25-67.88 0-124.65 48.44-137.579 112.569l-23.391-2.17v-52.528a24.626 24.626 0 0 0 -19.869-24.13l-120-23.47a15 15 0 1 0 -5.76 29.438l115.629 22.611v212.712a75.173 75.173 0 0 0 23.371 54.488 52.973 52.973 0 0 0 3.529 90.042 57.771 57.771 0 1 0 96.82 6.91h147.321a57.754 57.754 0 1 0 50.639-30.011c-.689 0-1.379.03-2.06.06-.329-.03-.659-.051-1-.051h-245.471c-.018 0-.05-.009-.068-.009s-.051.009-.08.009h-19.981a23.02 23.02 0 1 1 0-46.039zm127.34-139.78a15.019 15.019 0 0 0 21.22 0l49.3-49.3a15 15 0 1 0 -21.211-21.22l-23.7 23.7v-83.189a15 15 0 1 0 -30 0v83.188l-23.7-23.7a15 15 0 1 0 -21.211 21.22z" fill-rule="evenodd"></path></svg>