<!-- icon666.com - MILLIONS vector ICONS FREE --><svg version="1.1" id="Capa_1" xmlns="http://www.w3.org/2000/svg" xmlns:xlink="http://www.w3.org/1999/xlink" x="0px" y="0px" viewBox="0 0 27.843 27.843" style="enable-background:new 0 0 27.843 27.843;" xml:space="preserve"><g><path d="M0,27.625h27.843V8.608H0V27.625z M8.526,18.917c0.854,0,2.217,0,2.217,0s0-0.372,0-0.938c0-1.752,0-5.16,0-6.462 c0,0-0.01-0.305,0.385-0.305c0.396,0,4.893,0,5.445,0s0.459,0.365,0.459,0.365c0,1.34,0,4.636,0,6.448c0,0.633,0,1.045,0,1.045 s1.695,0,2.399,0c0.702,0,0.057,0.612,0.057,0.612l-5.292,5.148c0,0-0.352,0.409-0.718,0.043c-0.505-0.505-5.162-5.316-5.162-5.316 S7.67,18.917,8.526,18.917z"></path><polygon points="13.098,0.217 2.362,0.217 0.25,7.489 12.603,7.489 "></polygon><polygon points="27.843,7.489 25.321,0.217 14.743,0.217 15.377,7.489 "></polygon></g></svg>