<!-- icon666.com - MILLIONS vector ICONS FREE --><svg id="Capa_1" enable-background="new 0 0 512 512" viewBox="0 0 512 512" xmlns="http://www.w3.org/2000/svg"><path d="m0 241h241v-241h-241zm105.5-211h30v57.993l-15-6.614-15 6.614zm-75.5 0h45.5v104.007l45-19.841 45 19.841v-104.007h45.5v181h-181z"></path><path d="m0 512h241v-241h-241zm105.5-211h30v57.993l-15-6.614-15 6.614zm-75.5 0h45.5v104.007l45-19.841 45 19.841v-104.007h45.5v181h-181z"></path><path d="m271 0v241h241v-241zm105.5 30h30v57.993l-15-6.614-15 6.614zm105.5 181h-181v-181h45.5v104.007l45-19.841 45 19.841v-104.007h45.5z"></path><path d="m271 512h241v-241h-241zm105.5-211h30v57.993l-15-6.614-15 6.614zm-75.5 0h45.5v104.007l45-19.841 45 19.841v-104.007h45.5v181h-181z"></path></svg>